REM DIRINDEX 1\2,1\3,1\4,1\6,1\5\7,1\5\8
REM DIRNAME folder01,folder02,folder03,folder04,folder05,folder06,folder07,folder08
TITLE ""
FILE "DB4500_5th_6C_41.mp3" MP3
  TRACK 01 AUDIO
    TITLE "0:"
    INDEX 01 00:00:00
  TRACK 02 AUDIO
    TITLE "2:cjc114_4739"
    INDEX 01 00:00:03
  TRACK 03 AUDIO
    TITLE "0:"
    INDEX 01 00:01:13
  TRACK 04 AUDIO
    TITLE "3:cjc114_4740"
    INDEX 01 00:01:36
  TRACK 05 AUDIO
    TITLE "0:"
    INDEX 01 00:02:61
  TRACK 06 AUDIO
    TITLE "4:cjc114_4741"
    INDEX 01 00:03:10
  TRACK 07 AUDIO
    TITLE "0:"
    INDEX 01 00:05:67
  TRACK 08 AUDIO
    TITLE "2:cjc114_4742"
    INDEX 01 00:06:39
  TRACK 09 AUDIO
    TITLE "0:"
    INDEX 01 00:07:31
  TRACK 10 AUDIO
    TITLE "3:cjc114_4743"
    INDEX 01 00:07:54
  TRACK 11 AUDIO
    TITLE "0:"
    INDEX 01 00:09:57
  TRACK 12 AUDIO
    TITLE "4:cjc114_4744"
    INDEX 01 00:10:06
  TRACK 13 AUDIO
    TITLE "0:"
    INDEX 01 00:13:65
  TRACK 14 AUDIO
    TITLE "2:cjc114_4745"
    INDEX 01 00:14:39
  TRACK 15 AUDIO
    TITLE "0:"
    INDEX 01 00:15:40
  TRACK 16 AUDIO
    TITLE "3:cjc114_4746"
    INDEX 01 00:15:60
  TRACK 17 AUDIO
    TITLE "0:"
    INDEX 01 00:17:04
  TRACK 18 AUDIO
    TITLE "4:cjc114_4747"
    INDEX 01 00:17:23
  TRACK 19 AUDIO
    TITLE "0:"
    INDEX 01 00:20:24
  TRACK 20 AUDIO
    TITLE "2:cjc114_4748"
    INDEX 01 00:20:71
  TRACK 21 AUDIO
    TITLE "0:"
    INDEX 01 00:21:72
  TRACK 22 AUDIO
    TITLE "3:cjc114_4749"
    INDEX 01 00:22:19
  TRACK 23 AUDIO
    TITLE "0:"
    INDEX 01 00:24:24
  TRACK 24 AUDIO
    TITLE "4:cjc114_4750"
    INDEX 01 00:24:45
  TRACK 25 AUDIO
    TITLE "0:"
    INDEX 01 00:26:66
  TRACK 26 AUDIO
    TITLE "2:cjc114_4751"
    INDEX 01 00:27:39
  TRACK 27 AUDIO
    TITLE "0:"
    INDEX 01 00:28:45
  TRACK 28 AUDIO
    TITLE "3:cjc114_4752"
    INDEX 01 00:28:68
  TRACK 29 AUDIO
    TITLE "0:"
    INDEX 01 00:30:12
  TRACK 30 AUDIO
    TITLE "4:cjc114_4753"
    INDEX 01 00:30:38
  TRACK 31 AUDIO
    TITLE "0:"
    INDEX 01 00:34:45
  TRACK 32 AUDIO
    TITLE "2:cjc114_4754"
    INDEX 01 00:35:12
  TRACK 33 AUDIO
    TITLE "0:"
    INDEX 01 00:36:09
  TRACK 34 AUDIO
    TITLE "3:cjc114_4755"
    INDEX 01 00:36:31
  TRACK 35 AUDIO
    TITLE "0:"
    INDEX 01 00:37:42
  TRACK 36 AUDIO
    TITLE "4:cjc114_4756"
    INDEX 01 00:37:56
  TRACK 37 AUDIO
    TITLE "0:"
    INDEX 01 00:41:12
  TRACK 38 AUDIO
    TITLE "2:cjc114_4757"
    INDEX 01 00:41:47
  TRACK 39 AUDIO
    TITLE "0:"
    INDEX 01 00:42:57
  TRACK 40 AUDIO
    TITLE "3:cjc114_4758"
    INDEX 01 00:42:70
  TRACK 41 AUDIO
    TITLE "0:"
    INDEX 01 00:44:11
  TRACK 42 AUDIO
    TITLE "4:cjc114_4759"
    INDEX 01 00:44:20
  TRACK 43 AUDIO
    TITLE "0:"
    INDEX 01 00:47:38
  TRACK 44 AUDIO
    TITLE "2:cjc114_4760"
    INDEX 01 00:48:02
  TRACK 45 AUDIO
    TITLE "0:"
    INDEX 01 00:49:12
  TRACK 46 AUDIO
    TITLE "3:cjc114_4761"
    INDEX 01 00:49:25
  TRACK 47 AUDIO
    TITLE "0:"
    INDEX 01 00:50:46
  TRACK 48 AUDIO
    TITLE "4:cjc114_4762"
    INDEX 01 00:50:60
  TRACK 49 AUDIO
    TITLE "0:"
    INDEX 01 00:54:03
  TRACK 50 AUDIO
    TITLE "2:cjc114_4763"
    INDEX 01 00:54:52
  TRACK 51 AUDIO
    TITLE "0:"
    INDEX 01 00:55:57
  TRACK 52 AUDIO
    TITLE "3:cjc114_4764"
    INDEX 01 00:55:71
  TRACK 53 AUDIO
    TITLE "0:"
    INDEX 01 00:57:13
  TRACK 54 AUDIO
    TITLE "4:cjc114_4765"
    INDEX 01 00:57:27
  TRACK 55 AUDIO
    TITLE "0:"
    INDEX 01 01:00:00
  TRACK 56 AUDIO
    TITLE "2:cjc114_4766"
    INDEX 01 01:00:37
  TRACK 57 AUDIO
    TITLE "0:"
    INDEX 01 01:01:52
  TRACK 58 AUDIO
    TITLE "3:cjc114_4767"
    INDEX 01 01:01:64
  TRACK 59 AUDIO
    TITLE "0:"
    INDEX 01 01:03:24
  TRACK 60 AUDIO
    TITLE "4:cjc114_4768"
    INDEX 01 01:03:37
  TRACK 61 AUDIO
    TITLE "0:"
    INDEX 01 01:06:53
  TRACK 62 AUDIO
    TITLE "2:cjc114_4769"
    INDEX 01 01:07:17
  TRACK 63 AUDIO
    TITLE "0:"
    INDEX 01 01:08:25
  TRACK 64 AUDIO
    TITLE "3:cjc114_4770"
    INDEX 01 01:08:38
  TRACK 65 AUDIO
    TITLE "0:"
    INDEX 01 01:10:67
  TRACK 66 AUDIO
    TITLE "4:cjc114_4771"
    INDEX 01 01:11:00
  TRACK 67 AUDIO
    TITLE "0:"
    INDEX 01 01:15:13
  TRACK 68 AUDIO
    TITLE "2:cjc114_4772"
    INDEX 01 01:15:48
  TRACK 69 AUDIO
    TITLE "0:"
    INDEX 01 01:16:63
  TRACK 70 AUDIO
    TITLE "3:cjc114_4773"
    INDEX 01 01:17:02
  TRACK 71 AUDIO
    TITLE "0:"
    INDEX 01 01:18:06
  TRACK 72 AUDIO
    TITLE "4:cjc114_4774"
    INDEX 01 01:18:19
  TRACK 73 AUDIO
    TITLE "0:"
    INDEX 01 01:21:74
  TRACK 74 AUDIO
    TITLE "2:cjc114_4775"
    INDEX 01 01:22:37
  TRACK 75 AUDIO
    TITLE "0:"
    INDEX 01 01:23:56
  TRACK 76 AUDIO
    TITLE "3:cjc114_4776"
    INDEX 01 01:23:71
  TRACK 77 AUDIO
    TITLE "0:"
    INDEX 01 01:24:73
  TRACK 78 AUDIO
    TITLE "4:cjc114_4777"
    INDEX 01 01:25:08
  TRACK 79 AUDIO
    TITLE "0:"
    INDEX 01 01:28:20
